<svg width="143" height="53" viewBox="0 0 143 53" fill="none" xmlns="http://www.w3.org/2000/svg">
<g clip-path="url(#clip0_6889_14312)">
<path d="M20.2 3.37305C16.2048 3.37305 12.2994 4.55776 8.97749 6.77737C5.65562 8.99697 3.06656 12.1518 1.53767 15.8428C0.00878203 19.5339 -0.391285 23.5955 0.388136 27.5139C1.16756 31.4323 3.09144 35.0316 5.91646 37.8566C8.74148 40.6816 12.3408 42.6055 16.2592 43.3849C20.1776 44.1643 24.2392 43.7643 27.9303 42.2354C31.6213 40.7065 34.7761 38.1174 36.9957 34.7956C39.2153 31.4737 40.4 27.5682 40.4 23.5731C40.3947 18.2173 38.2648 13.0824 34.4777 9.29534C30.6906 5.50825 25.5558 3.37834 20.2 3.37305ZM28.51 31.895H28.439C27.0443 31.896 25.6721 31.5426 24.4514 30.868C23.2306 30.1933 22.2013 29.2195 21.46 28.038C21.3292 27.8197 21.144 27.6391 20.9226 27.5136C20.7011 27.3882 20.451 27.3222 20.1965 27.3222C19.942 27.3222 19.6918 27.3882 19.4704 27.5136C19.249 27.6391 19.0639 27.8197 18.9331 28.038C18.6061 28.5617 18.2202 29.0462 17.783 29.482C17.019 30.2491 16.1106 30.8572 15.1103 31.2714C14.11 31.6855 13.0377 31.8975 11.955 31.895H11.885C10.2188 31.861 8.6191 31.2352 7.37227 30.1294C6.12543 29.0236 5.31291 27.5102 5.08003 25.8601C4.91354 24.7445 4.86889 23.6142 4.94697 22.4891C5.09388 20.4378 5.65312 18.4373 6.59114 16.6071C7.52916 14.777 8.82673 13.1549 10.4062 11.838C11.9857 10.521 13.8146 9.53613 15.7835 8.94238C17.7524 8.34864 19.8209 8.15819 21.8652 8.38242C23.9094 8.60666 25.8873 9.24097 27.6807 10.2474C29.4741 11.2539 31.0461 12.6117 32.3026 14.2398C33.559 15.8679 34.474 17.7327 34.993 19.7226C35.512 21.7125 35.6242 23.7867 35.323 25.8211C35.0956 27.4785 34.2848 29.0006 33.0361 30.1139C31.7873 31.2271 30.1825 31.8587 28.51 31.895Z" fill="#38163D"/>
<path d="M20.1983 22.8019C22.0645 22.8019 23.5773 21.2891 23.5773 19.4229C23.5773 17.5568 22.0645 16.0439 20.1983 16.0439C18.3322 16.0439 16.8193 17.5568 16.8193 19.4229C16.8193 21.2891 18.3322 22.8019 20.1983 22.8019Z" fill="#38163D"/>
<path d="M69.6901 0.487793C68.8779 0.488587 68.0993 0.811551 67.525 1.3858C66.9508 1.96006 66.6279 2.73868 66.6271 3.5508V11.9918C65.0284 11.0077 63.1821 10.5001 61.3051 10.5288C61.1831 10.5288 61.0611 10.5288 60.9401 10.5348C59.5132 10.5868 58.1107 10.9209 56.8136 11.5178C55.5165 12.1148 54.3506 12.9628 53.3831 14.0128C51.3824 16.101 50.2601 18.8779 50.248 21.7698V31.6308C50.248 38.0838 54.8741 42.5918 61.5011 42.5918C61.7081 42.5918 61.9181 42.5918 62.1281 42.5778C65.0004 42.433 67.6994 41.1601 69.6381 39.0358C71.6243 36.9466 72.7387 34.1784 72.754 31.2958V3.5508C72.753 2.73859 72.4299 1.95997 71.8555 1.38574C71.2811 0.811519 70.5023 0.488587 69.6901 0.487793ZM66.6271 21.4988V31.6318C66.6572 32.3176 66.5459 33.0022 66.3003 33.6432C66.0546 34.2842 65.6798 34.8678 65.1991 35.3578C64.7184 35.8478 64.142 36.2337 63.5059 36.4916C62.8697 36.7495 62.1873 36.8738 61.5011 36.8568C60.8169 36.8659 60.1379 36.7363 59.5052 36.4757C58.8726 36.2151 58.2992 35.829 57.8199 35.3406C57.3407 34.8523 56.9654 34.2719 56.7167 33.6344C56.468 32.9969 56.3511 32.3157 56.373 31.6318L56.473 21.4948C56.4368 20.8154 56.5407 20.1357 56.7781 19.4981C57.0155 18.8605 57.3814 18.2785 57.8531 17.7882C58.3249 17.2979 58.8925 16.9099 59.5205 16.6482C60.1486 16.3865 60.8237 16.2566 61.504 16.2668C61.596 16.2668 61.6901 16.2668 61.7841 16.2748C63.1086 16.3547 64.3512 16.9424 65.2533 17.9155C66.1554 18.8885 66.6475 20.172 66.6271 21.4988Z" fill="#38163D"/>
<path d="M86.8478 11.0168C85.7956 10.9805 84.7472 11.161 83.7677 11.5471C82.7883 11.9332 81.8986 12.5166 81.1541 13.261C80.4096 14.0055 79.8262 14.8951 79.4401 15.8746C79.054 16.8541 78.8736 17.9025 78.9098 18.9548V39.0398C78.9098 39.8523 79.2327 40.6315 79.8072 41.206C80.3817 41.7805 81.1608 42.1033 81.9733 42.1033C82.7858 42.1033 83.5651 41.7805 84.1396 41.206C84.7141 40.6315 85.0368 39.8523 85.0368 39.0398V18.9548C85.0167 18.6607 85.0598 18.3657 85.1633 18.0896C85.2667 17.8136 85.4281 17.5629 85.6365 17.3545C85.845 17.146 86.0957 16.9847 86.3717 16.8812C86.6478 16.7778 86.9428 16.7347 87.2369 16.7548C87.7388 16.7545 88.2202 16.555 88.5751 16.2C88.9301 15.8451 89.1295 15.3637 89.1298 14.8618V13.3018C89.1295 12.6963 88.8892 12.1158 88.4613 11.6874C88.0335 11.259 87.4532 11.0178 86.8478 11.0168Z" fill="#38163D"/>
<path d="M97.5278 11.0171C97.1253 11.0172 96.7267 11.0967 96.3549 11.251C95.983 11.4053 95.6452 11.6314 95.3608 11.9163C95.0765 12.2013 94.8511 12.5395 94.6975 12.9116C94.5439 13.2838 94.4652 13.6825 94.4658 14.0851L94.5049 39.0471C94.5063 39.8593 94.8304 40.6377 95.4058 41.211C95.9811 41.7843 96.7607 42.1055 97.5729 42.1041C98.3851 42.1026 99.1634 41.7786 99.7367 41.2032C100.31 40.6278 100.631 39.8483 100.63 39.0361L100.591 14.0761C100.588 13.2649 100.265 12.4878 99.6906 11.9146C99.1166 11.3413 98.339 11.0187 97.5278 11.0171Z" fill="#38163D"/>
<path d="M98.2457 0.052002C98.0392 0.017643 97.8301 0.000249678 97.6207 0C96.6992 0.00757791 95.8137 0.358768 95.1375 0.98484C94.4612 1.61091 94.043 2.4668 93.9646 3.385C93.8862 4.3032 94.1532 5.21762 94.7135 5.9493C95.2738 6.68098 96.0869 7.17726 96.9938 7.341C97.201 7.37543 97.4107 7.39281 97.6207 7.393C98.5421 7.38495 99.4273 7.03342 100.103 6.40719C100.779 5.78096 101.197 4.92509 101.275 4.00702C101.353 3.08895 101.086 2.17475 100.526 1.44328C99.9655 0.711802 99.1525 0.215694 98.2457 0.052002Z" fill="#38163D"/>
<path d="M119.12 10.5298C118.912 10.5298 118.701 10.5298 118.491 10.5438C115.619 10.6891 112.92 11.9619 110.981 14.0858C108.996 16.1756 107.882 18.9435 107.866 21.8258V49.1818C107.858 49.5886 107.932 49.9928 108.083 50.3708C108.233 50.7488 108.458 51.093 108.743 51.3833C109.028 51.6737 109.368 51.9042 109.743 52.0616C110.119 52.2191 110.521 52.3001 110.928 52.3001C111.335 52.3001 111.738 52.2191 112.113 52.0616C112.488 51.9042 112.828 51.6737 113.114 51.3833C113.399 51.093 113.623 50.7488 113.774 50.3708C113.924 49.9928 113.998 49.5886 113.991 49.1818V41.1158C115.62 42.1139 117.5 42.6263 119.411 42.5928C119.553 42.5928 119.697 42.5928 119.841 42.5868C121.248 42.5429 122.634 42.222 123.917 41.6423C125.2 41.0627 126.357 40.2358 127.321 39.2088C129.284 37.1432 130.377 34.4007 130.372 31.5508V21.4928C130.373 15.0378 125.746 10.5298 119.12 10.5298ZM124.246 21.4888V31.6308C124.276 32.3166 124.165 33.0013 123.919 33.6423C123.674 34.2834 123.299 34.8671 122.818 35.3571C122.337 35.8471 121.761 36.2331 121.125 36.4909C120.488 36.7487 119.806 36.8729 119.12 36.8558C119.068 36.8558 119.02 36.8558 118.964 36.8558C117.617 36.7935 116.347 36.2121 115.42 35.2336C114.493 34.2552 113.981 32.9556 113.992 31.6078V21.4928C113.962 20.8069 114.073 20.1221 114.319 19.4811C114.565 18.84 114.94 18.2564 115.421 17.7664C115.902 17.2764 116.478 16.8905 117.115 16.6327C117.751 16.3749 118.433 16.2507 119.12 16.2678C119.232 16.2678 119.348 16.2678 119.464 16.2788C120.776 16.3738 122.002 16.9666 122.891 17.9359C123.78 18.9052 124.265 20.1776 124.247 21.4928L124.246 21.4888Z" fill="#38163D"/>
<path d="M139.593 0.487793C138.781 0.488852 138.002 0.811939 137.428 1.38616C136.854 1.96039 136.532 2.73886 136.531 3.5508V39.0408C136.523 39.4476 136.597 39.8518 136.748 40.2298C136.898 40.6078 137.123 40.952 137.408 41.2424C137.693 41.5327 138.033 41.7632 138.408 41.9207C138.784 42.0781 139.186 42.1591 139.593 42.1591C140 42.1591 140.403 42.0781 140.778 41.9207C141.153 41.7632 141.493 41.5327 141.779 41.2424C142.064 40.952 142.288 40.6078 142.439 40.2298C142.589 39.8518 142.663 39.4476 142.656 39.0408V3.5508C142.655 2.73876 142.332 1.9603 141.757 1.3861C141.183 0.811906 140.405 0.488851 139.593 0.487793Z" fill="#38163D"/>
<path d="M22.5296 21.3952C22.1863 21.802 21.7426 22.1121 21.2425 22.2947C20.7425 22.4773 20.2033 22.5261 19.6786 22.4362C19.1472 22.3458 18.6493 22.1164 18.2353 21.7711C17.8214 21.4259 17.5062 20.9773 17.3219 20.4708C17.1375 19.9643 17.0905 19.418 17.1856 18.8875C17.2808 18.357 17.5147 17.8611 17.8636 17.4502C18.1506 17.1108 18.5079 16.8379 18.911 16.6505C19.314 16.4631 19.7531 16.3658 20.1976 16.3652C20.3711 16.3653 20.5443 16.3794 20.7156 16.4072C21.2468 16.4981 21.7445 16.7279 22.1582 17.0734C22.5718 17.4188 22.8868 17.8676 23.0709 18.374C23.255 18.8805 23.3018 19.4267 23.2065 19.9572C23.1113 20.4876 22.8775 20.9834 22.5287 21.3942L22.5296 21.3952Z" fill="#38163D"/>
</g>
<defs>
<clipPath id="clip0_6889_14312">
<rect width="142.657" height="52.245" fill="white"/>
</clipPath>
</defs>
</svg>
